<?xml version="1.0" encoding="UTF-8"?>
<svg width="383px" height="107px" viewBox="0 0 383 107" version="1.1" xmlns="http://www.w3.org/2000/svg" xmlns:xlink="http://www.w3.org/1999/xlink">
    <!-- Generator: Sketch 48.2 (47327) - http://www.bohemiancoding.com/sketch -->
    <title>Слой_1</title>
    <desc>Created with Sketch.</desc>
    <defs></defs>
    <g id="Ru_main_choose_city_v4" stroke="none" stroke-width="1" fill="none" fill-rule="evenodd" transform="translate(-824.000000, -104.000000)">
        <g id="Слой_1" transform="translate(824.000000, 104.000000)" fill="#0275CB" fill-rule="nonzero">
            <g id="Group">
                <g transform="translate(0.622568, 0.000000)" id="Shape">
                    <polygon points="256.040157 41.2862751 299.258725 41.2862751 299.258725 32.9160042 256.040157 32.9160042 256.040157 10.9807866 307.00381 10.9807866 307.00381 2.61212197 241.119882 2.61212197 241.119882 75.0227555 309.906405 75.0227555 309.906405 66.666941 256.040157 66.666941"></polygon>
                    <polygon points="336.857238 66.666941 336.857238 2.61212197 321.938573 2.61212197 321.938573 75.0227555 378.823328 74.9938426 382.406898 66.6235718"></polygon>
                    <path d="M117.97288,30.6142199 C109.860745,29.5862073 94.043773,28.964581 93.9391314,19.2466499 C93.8666873,11.3132844 104.649596,8.99543736 114.778898,8.99543736 C127.432476,8.99543736 136.880802,12.4151853 142.001799,14.8326211 L147.504334,6.56515145 C140.580284,3.91480661 128.942534,0.483814751 114.88032,0.397076193 C106.174143,0.339250487 99.8457443,1.74313012 95.9546886,3.32209313 C77.1497977,10.9229609 76.2933469,32.1514199 94.5186846,39.5065284 C100.383441,41.8645322 107.494236,43.0098024 114.283058,43.9382262 C129.259678,45.992645 144.875417,47.3258488 142.030776,58.5761611 C139.970143,66.7006727 127.633709,68.3920746 119.391175,68.3808307 C100.715074,68.3808307 87.5962438,61.065879 82.3432381,57.5176294 L82.3432381,69.061889 C89.4669127,72.6920583 101.890279,77.2570765 119.391175,77.2570765 C143.96262,77.2570765 153.887469,65.2229047 155.294495,55.1034062 C158.011955,35.685213 134.021673,32.6590011 117.97288,30.6142199 Z"></path>
                    <polygon points="0.122350116 75.0227555 70.795641 75.0227555 70.795641 66.666941 15.0571137 66.666941 15.0571137 41.2862751 63.0602159 41.2862751 63.0602159 32.9160042 15.0571137 32.9160042 15.0571137 10.9807866 70.795641 10.9807866 70.795641 2.61212197 0.122350116 2.61212197"></polygon>
                    <polygon points="156.517996 10.9807866 185.279933 10.9807866 185.279933 75.0227555 200.328997 75.0227555 200.328997 10.9807866 229.076445 10.9807866 229.076445 2.61212197 156.517996 2.61212197"></polygon>
                </g>
                <path d="M359.526975,106.27236 L359.526975,103.560977 L348.716699,103.560977 L348.716699,99.9436577 L358.751018,99.9436577 L358.751018,97.2322746 L348.716699,97.2322746 L348.716699,93.8077078 L359.09553,93.8077078 L359.09553,91.0754432 L344.896477,91.0754432 L344.896477,106.273966 L359.526975,106.273966 L359.526975,106.27236 Z M336.832639,106.27236 L336.832639,91.0738369 L331.37357,91.0738369 L326.692068,102.222954 L321.96549,91.0738369 L316.440416,91.0738369 L316.440416,106.27236 L320.064233,106.27236 C320.064233,105.69089 319.9773,94.5819297 319.9773,94.5819297 L324.917991,106.27236 L328.3937,106.27236 L333.292535,94.5819297 C333.292535,94.5819297 333.203992,105.498138 333.203992,106.27236 L336.832639,106.27236 Z M303.308707,100.71788 L297.959109,100.71788 L300.655641,94.7746821 L303.308707,100.71788 Z M310.105578,106.27236 L302.746862,91.0738369 L298.625595,91.0738369 L291.268489,106.27236 L295.433223,106.27236 L296.727558,103.408381 L304.540257,103.408381 L305.836203,106.27236 L310.105578,106.27236 Z M284.872476,106.27236 L284.872476,91.0738369 L281.245439,91.0738369 L281.245439,101.684854 L271.901754,91.0738369 L268.083142,91.0738369 L268.083142,106.27236 L271.70696,106.27236 L271.70696,95.6147611 L281.11665,106.27236 L284.872476,106.27236 Z M242.449183,100.71788 L237.099585,100.71788 L239.797727,94.7746821 L242.449183,100.71788 Z M249.247664,106.27236 L241.890558,91.0738369 L237.766071,91.0738369 L230.408966,106.27236 L234.573699,106.27236 L235.871255,103.408381 L243.682344,103.408381 L244.976679,106.27236 L249.247664,106.27236 Z M196.163812,102.460682 C197.654552,105.258804 200.050038,106.747816 204.494889,106.747816 C208.355357,106.747816 212.241583,105.819392 212.241583,101.644697 C212.241583,98.2634997 209.092678,97.6627548 207.107708,97.3158006 C206.006557,97.1230482 203.287487,96.7150558 202.208874,96.3905893 C201.540778,96.1753492 200.999862,95.852489 200.999862,95.078267 C200.999862,93.3547398 203.611071,93.3113705 204.322633,93.3113705 C205.874548,93.3113705 207.988307,93.5908614 208.810951,95.1425178 L212.413839,94.238188 C211.206437,92.0857868 208.896274,90.5983811 204.432104,90.5983811 C200.653739,90.5983811 197.30843,91.9749542 197.30843,95.3577579 C197.30843,97.6643611 199.014892,98.6522169 199.703916,98.9750771 C200.935467,99.5533341 202.422987,99.7701805 205.248308,100.202267 C207.127027,100.483364 208.593618,100.698604 208.593618,101.946676 C208.593618,103.862955 205.530036,103.948088 204.795935,103.948088 C202.918827,103.948088 200.544268,103.498332 199.637912,101.57884 L196.163812,102.460682 Z M184.468107,100.71788 L179.118509,100.71788 L181.816651,94.7746821 L184.468107,100.71788 Z M191.266588,106.27236 L183.907872,91.0738369 L179.788215,91.0738369 L172.429499,106.27236 L176.594233,106.27236 L177.888568,103.408381 L185.701267,103.408381 L186.997213,106.27236 L191.266588,106.27236 Z M166.049585,106.27236 L166.049585,91.0738369 L162.230973,91.0738369 L162.230973,96.9302959 L153.040226,96.9302959 L153.040226,91.0738369 L149.218395,91.0738369 L149.218395,106.27236 L153.040226,106.27236 L153.040226,99.7476928 L162.230973,99.7476928 L162.230973,106.27236 L166.049585,106.27236 Z M130.318521,91.0738369 L125.677266,91.0738369 L121.16963,97.4234207 L116.679703,91.0738369 L111.996591,91.0738369 L119.250665,100.565284 L119.250665,106.27236 L123.046739,106.27236 L123.046739,100.565284 L130.318521,91.0738369 Z M106.328239,93.8510771 L106.328239,91.0738369 L91.2019012,91.0738369 L91.2019012,93.8510771 L96.8557645,93.8510771 L96.8557645,106.27236 L100.700134,106.27236 L100.700134,93.8510771 L106.328239,93.8510771 Z M68.2966716,91.0738369 L68.2966716,100.696998 C68.2966716,104.852418 71.8577039,106.789579 76.5826722,106.789579 C81.1981693,106.789579 84.7173451,104.894181 84.7173451,100.738761 L84.7173451,91.0722307 L80.9196618,91.0722307 L80.9196618,100.716273 C80.9196618,103.085521 78.4613904,103.708754 76.5408156,103.708754 C74.1871857,103.708754 72.0927449,102.912044 72.0927449,100.329162 L72.0927449,91.0706244 L68.2966716,91.0706244 L68.2966716,91.0738369 Z M56.109956,100.71788 L50.7603582,100.71788 L53.4568903,94.7746821 L56.109956,100.71788 Z M62.906827,106.27236 L55.5481114,91.0738369 L51.4268443,91.0738369 L44.0681288,106.27236 L48.2328623,106.27236 L49.5271978,103.408381 L57.3398967,103.408381 L58.635842,106.27236 L62.906827,106.27236 Z M38.1743949,106.27236 L38.1743949,103.560977 L27.3625083,103.560977 L27.3625083,99.9436577 L37.3968277,99.9436577 L37.3968277,97.2322746 L27.3625083,97.2322746 L27.3625083,93.8077078 L37.7413399,93.8077078 L37.7413399,91.0754432 L23.5438968,91.0754432 L23.5438968,106.273966 L38.1743949,106.273966 L38.1743949,106.27236 Z M4.27053372,103.604346 L4.27053372,99.6866545 L10.4637034,99.6866545 C11.025548,99.6866545 12.4937494,99.7091423 12.4937494,101.535471 C12.4937494,103.560977 10.8967584,103.604346 10.2286624,103.604346 L4.27053372,103.604346 Z M4.27053372,97.0379159 L4.27053372,93.7000877 L10.0338681,93.7000877 C10.5506364,93.7000877 11.8240435,93.7000877 11.8465817,95.3577579 C11.8465817,96.9078081 10.6150312,97.0379159 10.01133,97.0379159 L4.27053372,97.0379159 Z M0.495388679,91.0738369 L0.495388679,106.27236 L10.9627631,106.27236 C12.4728211,106.27236 14.4127144,106.27236 15.6217267,104.421937 C15.9453106,103.948088 16.2898228,103.066246 16.2898228,101.859937 C16.2688945,98.9943523 14.1116687,98.2843812 12.9895894,98.0257717 C14.0456641,97.6820301 15.5138655,96.9495711 15.5138655,94.7971699 C15.5138655,94.0229479 15.3432192,93.0945241 14.6509752,92.3219084 C13.5063576,91.0738369 11.5439262,91.0738369 10.3783803,91.0738369 L0.495388679,91.0738369 Z" id="Shape"></path>
            </g>
        </g>
    </g>
</svg>